<svg xmlns="http://www.w3.org/2000/svg" viewBox="0 0 512 512">
  <rect width="512" height="512" fill="#0F766E" rx="64"/>
  <path fill="#ffffff" d="M256 96c-88.4 0-160 71.6-160 160s71.6 160 160 160 160-71.6 160-160S344.4 96 256 96zm0 288c-70.7 0-128-57.3-128-128s57.3-128 128-128 128 57.3 128 128-57.3 128-128 128z"/>
  <path fill="#ffffff" d="M256 160c-8.8 0-16 7.2-16 16v64h-64c-8.8 0-16 7.2-16 16s7.2 16 16 16h64v64c0 8.8 7.2 16 16 16s16-7.2 16-16v-64h64c8.8 0 16-7.2 16-16s-7.2-16-16-16h-64v-64c0-8.8-7.2-16-16-16z"/>
</svg>
